# xmcd CD database file
#
# Track frame offsets:
#	150
#	13567
#	26870
#	39858
#	52599
#	64784
#	77602
#	92304
#	105945
#	120323
#	133451
#	148535
#	162689
#	182578
#	194822
#	210173
#	225259
#	238409
#	258732
#	272671
#	287512
#	302494
#	316370
#	331457
#
# Disc length: 4613 seconds
#
# Revision: 1
# Processed by: cddbd v1.5.2PL0 Copyright (c) Steve Scherf et al.
# Submitted via: CDex 1.77
#
DISCID=45120318
DTITLE=Claude Thornhill and his Orchestra - Snowfall
DYEAR=2004
DGENRE=Jazz
TTITLE0=Snowfall
TTITLE1=Loch Lomond
TTITLE2=The Doll Dance
TTITLE3='O Sole Mio
TTITLE4=Hungarian Dance No. 5
TTITLE5=Traumerei
TTITLE6=Portrait Of A Guinea Farm
TTITLE7=Where Or When
TTITLE8=Autumn Nocturne
TTITLE9=Buster's Last Stand
TTITLE10=There's A Small Hotel
TTITLE11=Under The Willow Tree
TTITLE12=Arab Dance
TTITLE13=I Get The Blues When It Rains
TTITLE14=A Sunday Kind Of Love
TTITLE15=I Knew You When
TTITLE16=Early Autumn
TTITLE17=La Paloma
TTITLE18=Anthropology
TTITLE19=Robbins' Nest
TTITLE20=Polka Dots And Moonbeans
TTITLE21=Donna Lee
TTITLE22=Yardbird Suite
TTITLE23=Let's Call It A Day
EXTD=YEAR: 2004
EXTT0=
EXTT1=
EXTT2=
EXTT3=
EXTT4=
EXTT5=
EXTT6=
EXTT7=
EXTT8=
EXTT9=
EXTT10=
EXTT11=
EXTT12=
EXTT13=
EXTT14=
EXTT15=
EXTT16=
EXTT17=
EXTT18=
EXTT19=
EXTT20=
EXTT21=
EXTT22=
EXTT23=
PLAYORDER=
